<?xml version="1.0" encoding="UTF-8" standalone="no"?>
<!-- Created with Inkscape (http://www.inkscape.org/) -->

<svg
   width="52.037601mm"
   height="53.053188mm"
   viewBox="0 0 52.037601 53.053188"
   version="1.1"
   id="svg1"
   xml:space="preserve"
   sodipodi:docname="issues.svg"
   xmlns:inkscape="http://www.inkscape.org/namespaces/inkscape"
   xmlns:sodipodi="http://sodipodi.sourceforge.net/DTD/sodipodi-0.dtd"
   xmlns="http://www.w3.org/2000/svg"
   xmlns:svg="http://www.w3.org/2000/svg"><sodipodi:namedview
     id="namedview1"
     pagecolor="#ffffff"
     bordercolor="#000000"
     borderopacity="0.25"
     inkscape:showpageshadow="2"
     inkscape:pageopacity="0.0"
     inkscape:pagecheckerboard="0"
     inkscape:deskcolor="#d1d1d1"
     inkscape:document-units="mm" /><defs
     id="defs1"><style
       id="style1">.cls-1{fill-rule:evenodd;}</style></defs><g
     inkscape:label="Layer 1"
     inkscape:groupmode="layer"
     id="layer1"
     transform="translate(-124.23825,-52.4103)"><path
       class="cls-1"
       d="m 168.63083,57.830026 a 7.1355512,7.1355512 0 0 1 1.72189,1.417907 6.4895919,6.4895919 0 0 1 1.15193,1.851882 v 0 a 7.3675366,7.3675366 0 0 1 0.36998,1.199924 6.9275643,6.9275643 0 0 1 0.048,2.799827 7.7375132,7.7375132 0 0 1 -0.42998,1.463908 l -0.024,0.05004 c -0.41197,0.99994 -1.11793,1.971875 -1.79989,2.931815 -0.34997,0.483968 -0.69595,0.963938 -0.98793,1.429909 a 0.93794098,0.93794098 0 0 1 -0.87195,0.433976 l -5.51165,0.819944 a 0.93994091,0.93994091 0 0 1 -1.03394,-0.681957 8.0374944,8.0374944 0 0 0 -0.50796,-1.163931 4.9696874,4.9696874 0 0 0 -0.59997,-0.897944 c -0.28598,-0.325979 -0.57596,-0.657959 -0.85794,-1.039932 a 8.0834913,8.0834913 0 0 1 -0.83395,-1.387914 v 0 a 8.215483,8.215483 0 0 1 -0.56196,-1.599902 7.1675492,7.1675492 0 0 1 -0.18999,-1.689894 v 0 a 7.0775549,7.0775549 0 0 1 0.22198,-1.757884 8.3374755,8.3374755 0 0 1 0.68396,-1.769895 l 0.04,-0.06999 a 7.1095528,7.1095528 0 0 1 1.42591,-1.725888 6.7435759,6.7435759 0 0 1 1.89188,-1.165926 l 0.056,-0.02003 a 7.0815546,7.0815546 0 0 1 1.5999,-0.427974 7.5555248,7.5555248 0 0 1 1.7539,-0.03999 7.8275079,7.8275079 0 0 1 1.67989,0.341981 7.6875162,7.6875162 0 0 1 1.5579,0.697959 z m -0.79995,17.450901 a 3.4737815,3.4737815 0 0 1 -1.25592,1.257922 3.291793,3.291793 0 0 1 -1.43991,0.43997 2.973813,2.973813 0 0 1 -1.47191,-0.289985 3.01981,3.01981 0 0 1 -0.87795,-0.653954 l 5.05769,-0.753953 z m 0.48197,-2.829826 v 0.329985 0.115986 a 4.3997233,4.3997233 0 0 1 0,0.649962 l -0.098,0.477967 -6.12761,0.911943 -0.108,-0.245979 -0.23798,-0.97994 v -0.283983 l 6.55759,-0.975941 z m -3.58178,-19.286782 a 0.7679517,0.7679517 0 0 1 0.77796,-0.753953 v 0 h 0.054 a 0.7679517,0.7679517 0 0 1 0.69995,0.777951 v 0 a 0.25398402,0.25398402 0 0 1 0,0.03999 l -0.042,1.641898 v 0 a 0.42197346,0.42197346 0 0 1 0,0.052 0.7679517,0.7679517 0 0 1 -0.77395,0.707951 v 0 h -0.054 a 0.7679517,0.7679517 0 0 1 -0.70595,-0.77595 v 0 a 0.21798629,0.21798629 0 0 1 0,-0.03802 l 0.04,-1.649894 z m -8.46746,2.87582 a 0.7679517,0.7679517 0 0 1 0.49397,-1.33192 0.76595185,0.76595185 0 0 1 0.55196,0.199985 l 1.23192,1.145934 a 0.78195079,0.78195079 0 0 1 0.24399,0.535964 0.76395193,0.76395193 0 0 1 -0.19999,0.551965 0.77195147,0.77195147 0 0 1 -0.53397,0.243983 0.75995223,0.75995223 0 0 1 -0.55196,-0.199985 z m -2.01588,8.465466 a 0.77195147,0.77195147 0 0 1 -0.78395,-0.745956 0.7679517,0.7679517 0 0 1 0.74596,-0.799947 l 1.68189,-0.05601 a 0.7679517,0.7679517 0 0 1 0.79995,0.743953 v 0.01202 0 0.02797 a 0.7679517,0.7679517 0 0 1 -0.74595,0.753953 h -0.03 l -1.6599,0.05397 z M 175.4464,62.12175 h 0.016 a 0.7679517,0.7679517 0 0 1 0.53196,0.171995 0.76195208,0.76195208 0 0 1 0.27999,0.517967 v 0 a 0.09799383,0.09799383 0 0 1 0,0.026 0.7679517,0.7679517 0 0 1 -0.68796,0.811942 l -1.67389,0.17799 a 0.76595185,0.76595185 0 0 1 -0.56197,-0.169993 0.7679517,0.7679517 0 0 1 0.39998,-1.359909 c 0.55796,-0.06198 1.11992,-0.125994 1.67989,-0.179993 z m -3.31779,-6.693576 a 0.76595185,0.76595185 0 0 1 1.06393,-0.217989 v 0 a 0.74595308,0.74595308 0 0 1 0.32598,0.487974 0.7679517,0.7679517 0 0 1 -0.11599,0.575964 l -0.93594,1.399909 a 0.75995223,0.75995223 0 0 1 -0.48797,0.335979 0.77595117,0.77595117 0 0 1 -0.57596,-0.113991 0.78395072,0.78395072 0 0 1 -0.32799,-0.485971 0.7679517,0.7679517 0 0 1 0.116,-0.575964 l 0.93794,-1.399909 z M 161.1093,68.583345 a 8.4374695,8.4374695 0 0 1 -1.44591,-2.061867 6.2396076,6.2396076 0 0 1 -0.62196,-2.711829 6.3396013,6.3396013 0 0 1 0.76195,-2.887824 0.09399409,0.09399409 0 0 0 0.01,-0.02003 v 0 a 5.4996541,5.4996541 0 0 1 2.67983,-2.341852 5.929627,5.929627 0 0 1 2.78583,-0.39997 6.4175964,6.4175964 0 0 1 2.66183,0.849947 5.485655,5.485655 0 0 1 2.32185,2.639834 5.7696371,5.7696371 0 0 1 0,4.449721 c -0.53796,1.309917 -1.76988,2.709827 -2.57783,3.989744 a 0.333979,0.333979 0 0 0 -0.134,0 l -5.21566,0.769954 a 6.9995598,6.9995598 0 0 0 -1.22593,-2.275858 z"
       id="path1-3"
       style="stroke-width:0.199987" /><g
       style="clip-rule:evenodd;fill-rule:evenodd;image-rendering:optimizeQuality;shape-rendering:geometricPrecision;text-rendering:geometricPrecision"
       id="g1"
       transform="matrix(0.0453975,0,0,0.0453975,124.23823,83.495223)"><path
         d="m 326.632,0.281 c 5.509,-1.311 11.037,2.093 12.347,7.601 1.311,5.508 -2.093,11.037 -7.601,12.347 -9.09,2.183 -17.261,7.027 -23.818,13.706 -5.777,5.885 -10.276,13.182 -13.036,21.339 19.665,11.04 34.072,31.154 34.388,59.711 16.903,9.624 32.2,22.478 45.303,37.866 h 31.599 c 7.276,0 11.415,-0.311 13.27,-1.492 1.891,-1.204 3.906,-4.791 6.931,-11.339 l 35.684,-77.254 c 3.565,-7.73 12.722,-11.106 20.451,-7.541 7.73,3.565 11.106,12.722 7.541,20.451 l -35.684,77.255 c -5.528,11.968 -10.421,19.293 -18.393,24.369 -8.007,5.099 -16.691,6.439 -29.8,6.439 h -10.173 c 8.329,14.886 14.952,31.182 19.547,48.513 h 69.285 c 8.53,0 15.445,6.915 15.445,15.444 0,8.53 -6.915,15.444 -15.445,15.444 h -63.427 a 227.654,227.654 0 0 1 1.543,26.469 c 0,7.256 -0.352,14.414 -1.018,21.462 h 5.132 c 13.108,0 21.792,1.341 29.8,6.439 7.972,5.076 12.864,12.401 18.393,24.37 l 35.684,77.254 c 3.565,7.729 0.188,16.886 -7.541,20.451 -7.729,3.566 -16.886,0.189 -20.451,-7.54 L 446.904,354.79 c -3.025,-6.548 -5.04,-10.134 -6.931,-11.338 -1.856,-1.182 -5.995,-1.493 -13.27,-1.493 h -10.251 c -19.637,81.879 -84.191,141.95 -160.807,141.95 -76.614,0 -141.17,-60.07 -160.805,-141.95 h -9.543 c -7.275,0 -11.414,0.311 -13.269,1.493 -1.892,1.204 -3.907,4.79 -6.931,11.338 l -35.684,77.255 c -3.565,7.729 -12.722,11.106 -20.451,7.54 C 1.232,436.02 -2.144,426.863 1.421,419.134 L 37.105,341.88 c 5.527,-11.969 10.42,-19.294 18.392,-24.37 8.008,-5.098 16.691,-6.439 29.8,-6.439 h 4.424 A 227.434,227.434 0 0 1 90.246,263.14 H 27.527 c -8.53,0 -15.444,-6.914 -15.444,-15.444 0,-8.529 6.914,-15.444 15.444,-15.444 h 68.576 c 4.597,-17.331 11.218,-33.628 19.548,-48.513 h -9.465 c -13.109,0 -21.793,-1.341 -29.8,-6.439 -7.972,-5.076 -12.865,-12.401 -18.393,-24.369 L 22.309,75.676 C 18.745,67.947 22.121,58.79 29.85,55.225 37.579,51.66 46.737,55.036 50.302,62.766 l 35.683,77.254 c 3.025,6.548 5.04,10.135 6.931,11.339 1.856,1.181 5.995,1.492 13.27,1.492 h 30.89 c 13.105,-15.387 28.4,-28.242 45.304,-37.867 0.316,-28.559 14.722,-48.671 34.388,-59.709 -2.759,-8.157 -7.259,-15.454 -13.036,-21.34 -6.557,-6.679 -14.728,-11.523 -23.818,-13.706 -5.508,-1.31 -8.911,-6.839 -7.601,-12.347 1.31,-5.508 6.839,-8.912 12.347,-7.601 12.989,3.119 24.548,9.921 33.711,19.256 7.693,7.836 13.723,17.472 17.511,28.215 a 82.278,82.278 0 0 1 39.529,-0.001 c 3.788,-10.742 9.818,-20.378 17.51,-28.214 9.163,-9.335 20.722,-16.137 33.711,-19.256 z m -56.591,453.715 a 87.671,87.671 0 0 1 -14.395,1.2 c -4.871,0 -9.673,-0.415 -14.395,-1.2 V 189.923 H 139.007 c 26.489,-42.012 68.872,-69.228 116.639,-69.228 47.767,0 90.15,27.216 116.639,69.228 H 270.041 Z m -64.474,-347.17 c 29.331,-12.97 64.557,-13.754 100.158,0 0,-57.504 -100.158,-57.502 -100.158,0 z"
         id="path1-9" /></g><path
       class="st0"
       d="m 132.16902,65.649837 c 0.11583,-0.11755 0.30427,-0.11928 0.42183,-0.002 0.11755,0.11756 0.11755,0.30773 0.002,0.42701 l -0.51,0.51692 0.51,0.51691 c 0.11583,0.11756 0.1141,0.306 -0.003,0.42355 -0.11756,0.11756 -0.306,0.11583 -0.4201,0 l -0.50654,-0.51348 -0.50827,0.51518 c -0.11583,0.11756 -0.306,0.11929 -0.42183,0.002 -0.11755,-0.11756 -0.11755,-0.30773 -0.002,-0.42701 l 0.51,-0.51691 -0.51,-0.51691 c -0.11583,-0.11756 -0.1141,-0.306 0.004,-0.42356 0.11756,-0.11756 0.306,-0.11583 0.4201,0 l 0.50654,0.51345 z m 1.80832,-10.70298 v 0.8644 c 0,0.22301 -0.17807,0.41664 -0.39417,0.43219 -0.0466,0.0156 -0.10026,0.0225 -0.15385,0.0225 h -1.60606 v 1.78931 c 2.69001,0 5.38174,0 8.07175,0 v -1.78758 h -1.60432 c -0.0536,0 -0.10892,-0.007 -0.15386,-0.0225 -0.2161,-0.0156 -0.39417,-0.20919 -0.39417,-0.4322 v -0.8644 c -1.25511,-0.002 -2.51021,-0.002 -3.76532,-0.002 z m -2.37018,3.99698 c -0.17807,0 -0.34749,-0.0778 -0.46332,-0.19363 -0.0156,-0.0155 -0.0225,-0.0311 -0.038,-0.0466 -0.0934,-0.11584 -0.15386,-0.26278 -0.15386,-0.41664 v -0.87996 h -2.41686 c -0.0225,0 -0.0536,0.007 -0.0692,0.0311 -0.0156,0.0173 -0.0311,0.0484 -0.0311,0.0709 v 16.83677 c 0,0.0311 0.007,0.0536 0.0311,0.0692 0.0156,0.0155 0.038,0.0311 0.0692,0.0311 4.95992,0 9.68991,0 14.64982,0 0.0311,0 0.0536,-0.0155 0.0692,-0.0311 0.0225,-0.0156 0.0311,-0.038 0.0311,-0.0692 v -16.83677 c 0,-0.0225 -0.0156,-0.0536 -0.0311,-0.0692 -0.0155,-0.0225 -0.0466,-0.0311 -0.0692,-0.0311 h -2.41685 v 0.87996 c 0,0.15386 -0.0622,0.30081 -0.15387,0.41664 -0.0156,0.0155 -0.0225,0.0311 -0.038,0.0466 -0.11583,0.11583 -0.28525,0.19362 -0.46333,0.19362 -2.83522,-0.002 -5.67044,-0.002 -8.50567,-0.002 z m -3.06516,16.37517 c -0.26277,0 -0.50999,-0.10718 -0.68633,-0.28525 -0.17807,-0.17807 -0.28525,-0.41664 -0.28525,-0.68634 v -16.83849 c 0,-0.26969 0.10718,-0.50999 0.28525,-0.68632 0.17807,-0.17807 0.41664,-0.28525 0.68633,-0.28525 h 2.41686 v -0.47888 c 0,-0.17807 0.0692,-0.33885 0.19363,-0.46332 0.11583,-0.11583 0.27833,-0.19363 0.46331,-0.19363 h 1.49715 v -0.59989 c 0,-0.20054 0.0847,-0.37861 0.2161,-0.50999 0.13138,-0.13139 0.30772,-0.2161 0.50826,-0.2161 1.34846,0 2.6952,0 4.04366,0 0.20053,0 0.3786,0.0847 0.50999,0.2161 0.13139,0.13138 0.2161,0.30945 0.2161,0.50999 v 0.60162 h 1.49714 c 0.18498,0 0.34749,0.0778 0.46332,0.19363 0.12274,0.12274 0.19362,0.28525 0.19362,0.46332 v 0.47887 h 2.41686 c 0.26969,0 0.51,0.10718 0.68633,0.28525 0.17807,0.17807 0.28526,0.41664 0.28526,0.68634 v 16.83675 c 0,0.2697 -0.10719,0.51 -0.28526,0.68634 -0.17807,0.17807 -0.42528,0.28525 -0.68633,0.28525 -4.95473,0 -9.68127,0 -14.636,0 z m 12.23124,-4.02464 c 0.23858,0 0.43912,-0.19362 0.43912,-0.43911 0,-0.23858 -0.19363,-0.43912 -0.43912,-0.43912 -0.84884,0 -4.99622,0 -5.84506,0 -0.24722,0 -0.43911,0.20054 -0.43911,0.43912 0,0.24721 0.20054,0.43911 0.43911,0.43911 v 0 c 0.84884,0 4.99622,0 5.84506,0 z m 0,-8.43653 c 0.23858,0 0.43912,-0.19363 0.43912,-0.43912 0,-0.23857 -0.19363,-0.43911 -0.43912,-0.43911 -0.84884,0 -4.99622,0 -5.84506,0 -0.24722,0 -0.43911,0.20054 -0.43911,0.43911 0,0.24722 0.20054,0.43912 0.43911,0.43912 0.84884,0 4.99622,0 5.84506,0 z m 0,4.16121 c 0.23858,0 0.43912,-0.19362 0.43912,-0.43911 0,-0.23857 -0.19363,-0.43912 -0.43912,-0.43912 -0.84884,0 -4.99622,0 -5.84506,0 -0.24722,0 -0.43911,0.20055 -0.43911,0.43912 0,0.24722 0.20054,0.43911 0.43911,0.43911 0.84884,0 4.99622,0 5.84506,0 z m -10.02356,3.81373 c -0.11929,-0.17807 -0.0726,-0.4201 0.10718,-0.54111 0.17807,-0.11929 0.4201,-0.0726 0.54112,0.10718 l 0.21264,0.31464 0.84192,-1.02517 c 0.13658,-0.16597 0.38207,-0.19017 0.54803,-0.0536 0.16597,0.13657 0.19017,0.38206 0.0536,0.54803 l -1.16521,1.41761 c -0.0259,0.0329 -0.0571,0.0622 -0.0934,0.0882 -0.17806,0.11928 -0.4201,0.0726 -0.54111,-0.10719 z m 0,-7.99915 c -0.11929,-0.17806 -0.0726,-0.4201 0.10718,-0.54111 0.17807,-0.11929 0.4201,-0.0726 0.54112,0.10719 l 0.21264,0.31464 0.84192,-1.02518 c 0.13658,-0.16596 0.38207,-0.19017 0.54803,-0.0536 0.16597,0.13658 0.19017,0.38207 0.0536,0.54803 l -1.16521,1.41761 c -0.0259,0.0329 -0.0571,0.0622 -0.0934,0.0882 -0.17806,0.11929 -0.4201,0.0726 -0.54111,-0.10718 z"
       id="path1-6"
       style="stroke-width:0.17288" /><g
       id="g3"
       transform="matrix(0.57132891,0,0,0.57132891,107.83562,13.837331)"><path
         d="m 98.983616,147.52921 c 0.52079,0.33031 0.82872,0.91081 0.81016,1.52723 -0.007,0.21781 -0.0576,0.43201 -0.14829,0.63023 -0.0921,0.19493 -0.22233,0.36944 -0.38306,0.51313 v 0 l -5.888289,5.22361 -0.902929,0.71251 c -0.345552,0.21484 -0.720959,0.37743 -1.114045,0.48252 -0.452783,0.11947 -0.922026,0.16419 -1.389224,0.13244 v 0 l -3.778408,3.3519 -0.760281,-0.85703 3.503293,-3.10784 c 0.573983,-0.50918 0.609571,-0.50894 0.861523,-0.42827 0.213574,0.0624 0.4377,0.0803 0.658467,0.0525 0.354478,-0.0229 0.702677,-0.10473 1.030307,-0.242 0.327195,-0.13499 0.629321,-0.3241 0.893735,-0.5594 l 6.212893,-5.51158 c 0.06285,-0.055 0.114037,-0.12201 0.150506,-0.19714 v 0 c 0.03755,-0.0807 0.05876,-0.1679 0.06222,-0.2568 0.003,-0.088 -0.01046,-0.17576 -0.03887,-0.2591 v 0 c -0.06385,-0.17098 -0.189021,-0.31207 -0.35117,-0.39585 -0.08014,-0.0434 -0.168868,-0.0684 -0.259858,-0.0736 -0.0879,-0.005 -0.176001,0.004 -0.260394,0.0294 -0.08071,0.0277 -0.155295,0.0711 -0.219432,0.12742 v 0 l -2.183121,1.93669 c -0.06252,0.0541 -0.156959,0.0482 -0.212896,-0.0127 l -0.479349,-0.54035 c -0.05555,-0.0626 -0.05069,-0.15823 0.01099,-0.21488 l 3.418177,-3.03232 c 0.0646,-0.056 0.116634,-0.12513 0.152671,-0.20268 0.03765,-0.0799 0.0582,-0.16674 0.06023,-0.25504 v 0 c 0.0026,-0.09 -0.01106,-0.1797 -0.04039,-0.26481 -0.03117,-0.0851 -0.07794,-0.1635 -0.137962,-0.23131 -0.06036,-0.0674 -0.132614,-0.12327 -0.213207,-0.16455 -0.08098,-0.0413 -0.169304,-0.0662 -0.259861,-0.0736 -0.08789,-0.005 -0.176,0.004 -0.260394,0.0294 -0.08075,0.0277 -0.155311,0.071 -0.219432,0.12742 l -3.418177,3.03233 c -0.06279,0.0538 -0.156981,0.0482 -0.212911,-0.0127 l -0.498657,-0.56212 c -0.05413,-0.0625 -0.0482,-0.15695 0.01274,-0.2129 l 4.57011,-4.05423 c 0.0621,-0.0557 0.113145,-0.12256 0.150485,-0.19716 v 0 c 0.0371,-0.0801 0.05758,-0.16683 0.06023,-0.25504 0.0043,-0.0909 -0.01011,-0.18164 -0.04214,-0.26679 -0.03005,-0.0855 -0.07696,-0.16421 -0.137957,-0.2313 -0.05928,-0.0683 -0.130661,-0.12514 -0.211191,-0.16634 v 0 c -0.07999,-0.0419 -0.167969,-0.0664 -0.258101,-0.0717 -0.175008,-0.0185 -0.349588,0.0385 -0.479815,0.15685 l -4.572092,4.05599 c -0.06355,0.0545 -0.159099,0.0479 -0.214657,-0.0147 l -0.486367,-0.54826 c -0.05413,-0.0625 -0.0482,-0.15695 0.01273,-0.2129 l 3.41027,-3.02532 c 0.06383,-0.0567 0.115756,-0.12562 0.152684,-0.20264 0.03609,-0.0805 0.0565,-0.16699 0.06025,-0.25505 0.0049,-0.0909 -0.0094,-0.18182 -0.04215,-0.26679 -0.03117,-0.0851 -0.07801,-0.16342 -0.137956,-0.2313 -0.06054,-0.0673 -0.132794,-0.12302 -0.213211,-0.16455 -0.07799,-0.0401 -0.163204,-0.0643 -0.250631,-0.0713 v 0 c -0.08899,-0.008 -0.178805,0.004 -0.262612,0.0349 -0.08129,0.0266 -0.156083,0.07 -0.219406,0.12744 l -2.677943,2.37565 -2.668039,2.36688 c -0.19065,0.14789 -1.54261,1.47457 -1.674719,0.4246 -0.02403,-0.12835 -0.03882,-0.25826 -0.04423,-0.38873 -0.0073,-0.15975 -0.0085,-0.3285 -0.0098,-0.49352 0.0025,-0.35595 0.01611,-0.73936 0.02285,-0.88327 v 0 c 0.01243,-0.23586 -0.02654,-0.47162 -0.114233,-0.69092 -0.120707,-0.40574 -0.577797,-0.60492 -0.957149,-0.41711 -0.190064,0.1 -0.337225,0.26572 -0.413982,0.46628 -0.164499,0.36876 -0.144515,1.00531 -0.15961,1.41487 -0.06702,1.12053 -0.191053,3.22537 -0.05294,4.64493 l 0.001,0.0451 c -0.01709,0.11967 -0.04356,0.23776 -0.07923,0.35323 -0.03801,0.11484 -0.08606,0.22611 -0.14359,0.33253 -0.04904,0.0906 -0.1075,0.17563 -0.174496,0.25383 -0.06679,0.0804 -0.140847,0.15434 -0.221263,0.22103 v 0 l -3.226193,2.86202 -0.772499,-0.87079 3.536933,-3.13768 c -0.129627,-1.34221 0.01366,-3.14227 0.10431,-4.37572 0.0565,-0.69384 0.02603,-1.65713 0.326752,-2.26701 0.16714,-0.35494 0.444184,-0.6466 0.79007,-0.83176 0.124491,-0.0649 0.256489,-0.11431 0.393019,-0.14705 0.13886,-0.0341 0.281573,-0.0502 0.424555,-0.0477 0.141059,0.004 0.280879,0.0279 0.415643,0.0699 0.135892,0.0432 0.266336,0.10193 0.388742,0.17506 0.309446,0.19537 0.554043,0.47808 0.702996,0.81234 0.159962,0.36726 0.231083,0.76705 0.207579,1.16695 l -0.01308,0.34406 -0.0057,0.22084 0.03958,-0.0351 0.148446,-0.1317 c 0.05147,-0.0457 0.09784,-0.0691 0.152598,-0.10707 l 5.068883,-4.4967 c 0.161827,-0.14244 0.350596,-0.25097 0.555119,-0.31915 0.207627,-0.0662 0.426292,-0.0907 0.64342,-0.0721 0.220083,0.0169 0.434484,0.0781 0.63022,0.18009 0.198174,0.0983 0.37532,0.23431 0.521447,0.40042 0.111153,0.12639 0.204302,0.26752 0.276685,0.41949 0.03414,0.0713 0.06294,0.14509 0.08615,0.22067 l 0.05738,-0.0509 c 0.33177,-0.29165 0.770094,-0.43179 1.209533,-0.38684 0.219606,0.0173 0.433745,0.0772 0.630436,0.17639 0.198627,0.101 0.376643,0.23811 0.524958,0.40437 0.147229,0.16615 0.261645,0.35869 0.337157,0.56745 0.0735,0.20821 0.10794,0.42822 0.10175,0.64895 -0.007,0.21737 -0.0583,0.43104 -0.15003,0.62827 -0.09024,0.19613 -0.220054,0.3715 -0.381291,0.51508 v 0 l -0.0475,0.0421 c 0.07275,0.0336 0.143739,0.071 0.2126,0.11205 0.147091,0.0895 0.279998,0.2005 0.394498,0.32913 v 0 c 0.14681,0.16644 0.26118,0.3589 0.33716,0.56743 0.0746,0.20669 0.1092,0.42563 0.10198,0.64522 -0.007,0.21781 -0.0578,0.43197 -0.14828,0.63024 -0.0921,0.19492 -0.22234,0.36942 -0.38306,0.51312 l -0.112817,0.10008 c 0.06588,0.0343 0.129857,0.072 0.191937,0.11269 z"
         id="path1-8"
         style="stroke-width:0.264583"
         sodipodi:nodetypes="cccsccccscccscccccsscsscccscccccccsscccccccccccsscccssccccccccccccsscccccccsscccccccccsccccccccccccccccscccccscccccccccscccssccccccc" /><path
         d="m 106.60952,141.71591 c 0.34005,-0.51447 0.92626,-0.81143 1.54222,-0.78126 0.21761,0.0115 0.43081,0.0659 0.62732,0.16011 0.19317,0.0957 0.36519,0.22925 0.50583,0.39265 v 0 l 5.11184,5.98559 0.69539,0.91618 c 0.20829,0.34953 0.36379,0.72794 0.46145,1.12293 0.11098,0.45494 0.1468,0.92495 0.10624,1.39148 v 0 l 3.28018,3.84083 -0.87119,0.74402 -3.04134,-3.56118 c -0.4983,-0.58347 -0.49738,-0.61905 -0.41198,-0.86944 0.0664,-0.21236 0.0885,-0.43611 0.0649,-0.65735 -0.0163,-0.35485 -0.0915,-0.70453 -0.22258,-1.03468 -0.12884,-0.32968 -0.31221,-0.63531 -0.54249,-0.90411 l -5.39364,-6.31555 c -0.0538,-0.0639 -0.11985,-0.11631 -0.19428,-0.15419 v 0 c -0.0799,-0.0391 -0.16677,-0.0619 -0.25558,-0.067 -0.0879,-0.004 -0.17593,0.007 -0.25984,0.0336 v 0 c -0.17214,0.0606 -0.31558,0.1831 -0.40239,0.34365 -0.0448,0.0793 -0.0716,0.16755 -0.0785,0.25843 -0.007,0.0877 0.001,0.17605 0.0245,0.26089 0.0263,0.0812 0.0681,0.15661 0.12325,0.2218 v 0 l 1.89523,2.2192 c 0.0529,0.0635 0.0452,0.15783 -0.0167,0.21261 l -0.54928,0.46909 c -0.0636,0.0543 -0.15918,0.0477 -0.21463,-0.015 l -2.96745,-3.47465 c -0.0548,-0.0657 -0.1229,-0.11898 -0.19976,-0.15647 -0.0791,-0.0391 -0.1656,-0.0613 -0.25387,-0.065 v 0 c -0.0899,-0.004 -0.17987,0.008 -0.26552,0.0354 -0.0856,0.0296 -0.16493,0.0749 -0.23387,0.13358 -0.0685,0.059 -0.12574,0.13027 -0.16852,0.21007 -0.0428,0.0802 -0.0694,0.16803 -0.0785,0.25843 -0.007,0.0877 10e-4,0.17605 0.0245,0.26091 0.0262,0.0813 0.0681,0.15661 0.12324,0.22179 l 2.96745,3.47466 c 0.0529,0.0635 0.0452,0.15784 -0.0168,0.21263 l -0.57139,0.48799 c -0.0635,0.0529 -0.15783,0.0452 -0.21263,-0.0168 l -3.96748,-4.64562 c -0.0545,-0.0631 -0.12041,-0.11544 -0.19427,-0.15418 v 0 c -0.0794,-0.0386 -0.16572,-0.0607 -0.25387,-0.065 -0.0909,-0.006 -0.18179,0.007 -0.26755,0.0371 -0.086,0.0284 -0.16562,0.0739 -0.23386,0.13357 -0.0694,0.058 -0.12757,0.12828 -0.17029,0.20803 v 0 c -0.0434,0.0792 -0.0695,0.16669 -0.0765,0.25671 -0.0219,0.17461 0.0318,0.35026 0.14778,0.48268 l 3.96921,4.64763 c 0.0536,0.0643 0.0449,0.15996 -0.0188,0.21435 l -0.55732,0.47595 c -0.0635,0.0529 -0.15783,0.0452 -0.21262,-0.0167 l -2.96058,-3.46662 c -0.0555,-0.0649 -0.12346,-0.11807 -0.19977,-0.15645 -0.0797,-0.0376 -0.16586,-0.0596 -0.25386,-0.0651 -0.0907,-0.007 -0.18197,0.006 -0.26754,0.0371 -0.0856,0.0296 -0.16487,0.0749 -0.23385,0.13357 -0.0684,0.0592 -0.1255,0.13045 -0.16853,0.21007 -0.0416,0.0773 -0.0673,0.16197 -0.0759,0.24926 v 0 c -0.01,0.0889 3.7e-4,0.17883 0.03,0.2632 0.0249,0.0818 0.067,0.15741 0.12324,0.22179 l 2.32483,2.72219 2.31621,2.71212 c 0.14428,0.19342 1.44531,1.57008 0.39301,1.68242 -0.12878,0.0217 -0.25902,0.0335 -0.3895,0.0369 -0.15985,0.004 -0.32859,0.002 -0.49362,5e-4 -0.35584,-0.009 -0.73892,-0.03 -0.88268,-0.0395 v 0 c -0.23559,-0.0169 -0.47203,0.0176 -0.69299,0.10099 -0.40794,0.11301 -0.61568,0.56631 -0.43505,0.94913 0.0964,0.19187 0.25934,0.34214 0.45842,0.42267 0.3656,0.17141 1.00243,0.16337 1.41162,0.18622 1.11907,0.0881 3.2212,0.25173 4.64311,0.14035 l 0.0451,-1.2e-4 c 0.11934,0.0193 0.2369,0.048 0.35168,0.0859 0.11412,0.0402 0.22445,0.0903 0.32977,0.14982 0.0896,0.0507 0.17354,0.11082 0.2505,0.17923 0.0791,0.0683 0.15168,0.14372 0.21683,0.22539 v 0 l 2.80077,3.2795 -0.88518,0.75598 -3.07054,-3.59538 c -1.34441,0.10433 -3.14145,-0.0728 -4.37298,-0.18666 -0.69264,-0.0696 -1.65635,-0.0572 -2.26045,-0.3694 -0.35174,-0.17379 -0.63813,-0.45627 -0.81674,-0.80558 -0.0625,-0.1257 -0.10951,-0.25859 -0.1396,-0.39573 -0.0315,-0.13948 -0.0448,-0.28248 -0.0397,-0.42538 0.007,-0.14092 0.0333,-0.2803 0.0777,-0.41426 0.0457,-0.13505 0.10693,-0.26436 0.18234,-0.38537 0.20116,-0.30571 0.48842,-0.54495 0.82543,-0.68758 0.37021,-0.15302 0.77128,-0.2166 1.17065,-0.18559 l 0.34376,0.0195 0.22067,0.01 -0.0344,-0.0402 -0.12887,-0.15091 c -0.0447,-0.0523 -0.0673,-0.0991 -0.10415,-0.15461 l -4.40049,-5.15263 c -0.13937,-0.16449 -0.24434,-0.35525 -0.30864,-0.56103 -0.0623,-0.20886 -0.0826,-0.42793 -0.06,-0.64466 0.021,-0.21974 0.0863,-0.43294 0.19197,-0.62671 0.10203,-0.19629 0.24133,-0.37085 0.41017,-0.51383 0.12845,-0.10874 0.27131,-0.19922 0.42461,-0.26873 0.0719,-0.0328 0.14625,-0.0602 0.22225,-0.082 l -0.0498,-0.0583 c -0.28536,-0.3372 -0.41721,-0.77808 -0.36401,-1.2166 0.0214,-0.21924 0.0854,-0.43221 0.18825,-0.627 0.10467,-0.1967 0.24515,-0.3721 0.41418,-0.51725 0.16889,-0.14408 0.36354,-0.25485 0.57368,-0.32642 0.20956,-0.0696 0.43019,-0.0998 0.65076,-0.0895 0.2172,0.0114 0.42987,0.0664 0.62533,0.16183 0.19438,0.0939 0.36731,0.22701 0.50783,0.39092 v 0 l 0.0412,0.0482 c 0.0349,-0.0721 0.0737,-0.14238 0.11601,-0.21046 0.0923,-0.14538 0.20574,-0.27618 0.33649,-0.38824 v 0 c 0.16918,-0.14366 0.36376,-0.25438 0.57369,-0.32642 0.20806,-0.0707 0.4276,-0.10117 0.64705,-0.0897 0.21762,0.0115 0.43081,0.0659 0.62733,0.16011 0.19315,0.0958 0.36517,0.22925 0.50581,0.39266 l 0.098,0.11467 c 0.0356,-0.0652 0.0744,-0.12848 0.11628,-0.18978 z"
         id="path1-8-7"
         style="stroke-width:0.264583"
         sodipodi:nodetypes="cccsccccscccscccccsscsscccscccccccsscccccccccccsscccssccccccccccccsscccccccsscccccccccsccccccccccccccccscccccscccccccccscccssccccccc" /><path
         d="m 100.3199,134.02984 c -0.501443,-0.359 -0.776343,-0.95586 -0.723233,-1.57026 0.0196,-0.21704 0.0819,-0.42806 0.18338,-0.62093 0.10288,-0.18946 0.242703,-0.35638 0.411233,-0.49083 v 0 l 6.17196,-4.8852 0.94146,-0.66075 c 0.35706,-0.19513 0.74099,-0.33641 1.13935,-0.41929 0.45877,-0.0939 0.92978,-0.11223 1.39446,-0.0543 v 0 l 3.96043,-3.13474 0.71103,0.89831 -3.67206,2.90649 c -0.60164,0.4762 -0.63715,0.47396 -0.88419,0.37929 -0.20973,-0.0743 -0.4325,-0.1047 -0.65448,-0.0893 -0.35521,0.003 -0.70744,0.0652 -1.04225,0.18383 -0.33426,0.11644 -0.64651,0.28831 -0.9237,0.50841 l -6.5122,5.1545 c -0.0658,0.0514 -0.1207,0.11543 -0.16132,0.18839 v 0 c -0.042,0.0784 -0.0681,0.16434 -0.0765,0.25291 -0.008,0.0877 5.9e-4,0.17607 0.0243,0.26086 v 0 c 0.0542,0.1743 0.17122,0.32219 0.32841,0.41493 0.0776,0.0478 0.16477,0.0778 0.25533,0.0881 0.0874,0.0105 0.17596,0.006 0.26163,-0.0148 0.0821,-0.0232 0.15903,-0.0622 0.22624,-0.11491 v 0 l 2.28829,-1.81122 c 0.0655,-0.0505 0.15941,-0.0393 0.21184,0.0246 l 0.4483,0.56637 c 0.052,0.0656 0.0417,0.16084 -0.023,0.21393 l -3.58285,2.83587 c -0.0676,0.0523 -0.12347,0.11839 -0.1638,0.1938 -0.0421,0.0777 -0.0675,0.16321 -0.0744,0.25127 v 0 c -0.008,0.0897 9.6e-4,0.18003 0.0255,0.26665 0.0264,0.0866 0.0686,0.16761 0.12477,0.23868 0.0565,0.0707 0.12549,0.13051 0.20364,0.17624 0.0785,0.0457 0.16532,0.0756 0.25533,0.0881 0.0874,0.0105 0.17596,0.006 0.26163,-0.0147 0.0822,-0.0232 0.15903,-0.0622 0.22624,-0.11492 l 3.58284,-2.83587 c 0.0655,-0.0505 0.15942,-0.0393 0.21186,0.0247 l 0.46636,0.58919 c 0.0505,0.0655 0.0393,0.15941 -0.0247,0.21186 l -4.79028,3.79156 c -0.0651,0.0521 -0.11984,0.11603 -0.16131,0.1884 v 0 c -0.0415,0.0779 -0.0668,0.16335 -0.0745,0.25125 -0.009,0.0905 -8e-5,0.18194 0.0271,0.26875 0.0252,0.0871 0.0676,0.16826 0.12476,0.23867 0.0554,0.0716 0.12344,0.13227 0.20153,0.17792 v 0 c 0.0775,0.0464 0.16399,0.0757 0.25368,0.086 0.17368,0.0284 0.3512,-0.0188 0.48786,-0.1297 l 4.79235,-3.79321 c 0.0662,-0.0512 0.16151,-0.0389 0.21349,0.0267 l 0.45486,0.57467 c 0.0505,0.0655 0.0393,0.1594 -0.0247,0.21185 l -3.57455,2.82931 c -0.0669,0.0531 -0.12259,0.11897 -0.16379,0.19379 -0.0406,0.0783 -0.0658,0.16354 -0.0745,0.25127 -0.01,0.0904 -7.8e-4,0.18206 0.0271,0.26873 0.0264,0.0866 0.0687,0.16755 0.12477,0.23868 0.0567,0.0706 0.12569,0.13027 0.20365,0.17624 0.0756,0.0445 0.15934,0.0734 0.24624,0.0852 v 0 c 0.0884,0.0133 0.17874,0.006 0.26416,-0.0201 0.0826,-0.0219 0.15973,-0.0611 0.22622,-0.11491 l 2.80696,-2.22174 2.79656,-2.21352 c 0.19866,-0.13697 1.62286,-1.38578 1.6959,-0.33003 0.0168,0.1295 0.0243,0.26004 0.0224,0.39061 -0.002,0.1599 -0.01,0.32845 -0.0179,0.49328 -0.0225,0.35525 -0.0575,0.73729 -0.0723,0.8806 v 0 c -0.0256,0.2348 5e-5,0.47236 0.0753,0.69624 0.0978,0.41187 0.54297,0.63636 0.93226,0.47013 0.19534,-0.0892 0.35158,-0.2464 0.43946,-0.44235 0.18492,-0.35894 0.20063,-0.99563 0.2387,-1.4037 0.12976,-1.115 0.37162,-3.20957 0.31333,-4.63464 l 0.001,-0.045 c 0.0238,-0.11854 0.0568,-0.23495 0.0989,-0.34825 0.0444,-0.11253 0.0986,-0.22092 0.16201,-0.32394 0.0541,-0.0877 0.11715,-0.16938 0.18844,-0.24366 0.0712,-0.0765 0.14928,-0.14621 0.23333,-0.20827 v 0 l 3.38161,-2.6766 0.72245,0.91275 -3.70732,2.9344 c 0.0542,1.34736 -0.18985,3.13656 -0.34953,4.36298 -0.0953,0.68958 -0.11892,1.65307 -0.45338,2.24512 -0.18679,0.34501 -0.47975,0.62068 -0.83547,0.78614 -0.12797,0.0578 -0.2625,0.0998 -0.40065,0.12478 -0.14056,0.0263 -0.28394,0.0343 -0.42657,0.0238 -0.14056,-0.0123 -0.27886,-0.0437 -0.41107,-0.0931 -0.13326,-0.0507 -0.2602,-0.11671 -0.37832,-0.19659 -0.298,-0.21242 -0.52635,-0.50838 -0.65633,-0.85048 -0.13911,-0.37565 -0.1877,-0.7788 -0.14181,-1.17674 l 0.0323,-0.3428 0.0181,-0.22016 -0.0415,0.0328 -0.15559,0.12316 c -0.0539,0.0427 -0.10155,0.0635 -0.15839,0.0983 l -5.31307,4.20537 c -0.16956,0.13316 -0.3641,0.23094 -0.57214,0.28753 -0.21103,0.0544 -0.43071,0.0666 -0.64645,0.0359 -0.2188,-0.0291 -0.42941,-0.10234 -0.61912,-0.21518 -0.19235,-0.10929 -0.36159,-0.255 -0.49817,-0.42904 -0.10389,-0.13241 -0.18898,-0.27855 -0.25272,-0.43433 -0.0301,-0.0731 -0.0547,-0.1484 -0.0736,-0.22516 l -0.0601,0.0476 c -0.34761,0.27258 -0.7931,0.38792 -1.22933,0.3184 -0.21829,-0.0296 -0.42873,-0.10142 -0.61955,-0.21148 -0.19266,-0.11193 -0.3627,-0.25885 -0.50145,-0.43317 -0.13769,-0.17415 -0.24112,-0.37279 -0.30481,-0.58546 -0.0617,-0.21201 -0.0838,-0.4336 -0.0652,-0.65363 0.0195,-0.21662 0.0824,-0.4271 0.18503,-0.61886 0.10112,-0.19074 0.24054,-0.3586 0.40958,-0.49291 v 0 l 0.0498,-0.0394 c -0.0707,-0.0376 -0.13953,-0.079 -0.20599,-0.12377 -0.14184,-0.0977 -0.26832,-0.21589 -0.37542,-0.35073 v 0 c -0.13725,-0.17441 -0.240653,-0.37298 -0.304813,-0.58545 -0.0628,-0.21055 -0.0852,-0.43108 -0.0656,-0.64992 0.0196,-0.21704 0.0819,-0.42806 0.18338,-0.62093 0.102883,-0.18946 0.242703,-0.35638 0.411233,-0.49083 l 0.11825,-0.0936 c -0.0639,-0.038 -0.12562,-0.0791 -0.18531,-0.12327 z"
         id="path1-8-4"
         style="stroke-width:0.264583"
         sodipodi:nodetypes="cccsccccscccscccccsscsscccscccccccsscccccccccccsscccssccccccccccccsscccccccsscccccccccsccccccccccccccccscccccscccccccccscccssccccccc" /><path
         d="m 93.124618,140.5435 c -0.33685,0.51658 -0.92119,0.81717 -1.53733,0.79083 -0.21768,-0.0102 -0.43121,-0.0632 -0.62831,-0.1562 -0.19375,-0.0945 -0.3666,-0.22698 -0.50825,-0.3895 v 0 l -5.14898,-5.95367 -0.70107,-0.91184 c -0.21047,-0.34823 -0.36832,-0.72566 -0.46844,-1.12004 -0.11374,-0.45425 -0.15256,-0.92402 -0.11491,-1.39078 v 0 l -3.304,-3.82036 0.86653,-0.74942 3.06343,3.54219 c 0.50192,0.58036 0.50123,0.61594 0.41738,0.86686 -0.0651,0.21277 -0.0858,0.43664 -0.0608,0.65774 0.0185,0.35475 0.0959,0.70395 0.22899,1.03328 0.13086,0.32887 0.31614,0.63336 0.54809,0.90072 l 5.43282,6.28187 c 0.0542,0.0635 0.12057,0.11557 0.19524,0.15298 v 0 c 0.0802,0.0386 0.16714,0.0609 0.25599,0.0654 0.0879,0.004 0.17588,-0.008 0.25956,-0.0356 v 0 c 0.17177,-0.0617 0.31443,-0.18507 0.40025,-0.34615 0.0443,-0.0796 0.0706,-0.16799 0.0769,-0.25891 0.007,-0.0878 -0.002,-0.17604 -0.0261,-0.26075 -0.0267,-0.0811 -0.0691,-0.15617 -0.12465,-0.22102 v 0 l -1.90901,-2.20736 c -0.0533,-0.0632 -0.0462,-0.15755 0.0154,-0.21272 l 0.54634,-0.4725 c 0.0633,-0.0548 0.15887,-0.0487 0.21473,0.0137 l 2.989,3.45613 c 0.0552,0.0653 0.12364,0.1182 0.20073,0.15521 0.0794,0.0387 0.16599,0.0603 0.25427,0.0634 v 0 c 0.09,0.004 0.17982,-0.009 0.26529,-0.037 0.0854,-0.0301 0.16447,-0.0759 0.23303,-0.13503 0.0682,-0.0595 0.12493,-0.13105 0.16722,-0.21112 0.0423,-0.0804 0.0684,-0.16845 0.0769,-0.25891 0.007,-0.0878 -0.002,-0.17605 -0.0261,-0.26075 -0.0267,-0.0811 -0.0691,-0.15617 -0.12464,-0.22102 l -2.989,-3.45613 c -0.0533,-0.0632 -0.0462,-0.15756 0.0154,-0.21274 l 0.56835,-0.49153 c 0.0632,-0.0533 0.15755,-0.0462 0.21272,0.0154 l 3.9963,4.62086 c 0.0549,0.0628 0.12113,0.11468 0.19523,0.15297 v 0 c 0.0796,0.0381 0.1661,0.0597 0.25426,0.0634 0.0909,0.005 0.18176,-0.008 0.2673,-0.0388 0.0859,-0.0289 0.16517,-0.0749 0.23303,-0.13504 0.0691,-0.0584 0.12678,-0.12907 0.16899,-0.20907 v 0 c 0.043,-0.0795 0.0685,-0.16713 0.0749,-0.25719 0.0208,-0.17474 -0.0341,-0.35004 -0.15079,-0.48175 l -3.99804,-4.62285 c -0.054,-0.064 -0.0459,-0.15967 0.0174,-0.21446 l 0.55434,-0.47941 c 0.0632,-0.0533 0.15755,-0.0462 0.21273,0.0154 l 2.98209,3.44813 c 0.0559,0.0646 0.12418,0.11731 0.20073,0.15521 0.08,0.0371 0.16624,0.0586 0.25426,0.0635 0.0908,0.006 0.18193,-0.007 0.2673,-0.0388 0.0854,-0.0301 0.1644,-0.0759 0.23302,-0.13503 0.068,-0.0597 0.12469,-0.13124 0.16723,-0.21112 0.0411,-0.0775 0.0664,-0.16238 0.0744,-0.24972 v 0 c 0.009,-0.0889 -10e-4,-0.17884 -0.0316,-0.26303 -0.0255,-0.0816 -0.068,-0.15692 -0.12464,-0.22101 l -2.34171,-2.70768 -2.33304,-2.69766 c -0.14548,-0.19251 -1.45504,-1.56106 -0.40347,-1.67994 0.12865,-0.0224 0.25873,-0.0356 0.38926,-0.0393 0.15983,-0.005 0.32858,-0.004 0.4936,-0.004 0.35588,0.007 0.7391,0.0254 0.88291,0.034 v 0 c 0.23569,0.0154 0.47192,-0.0206 0.69231,-0.10552 0.40723,-0.11558 0.61214,-0.57012 0.42914,-0.95181 -0.0975,-0.19134 -0.26146,-0.34054 -0.46104,-0.41982 -0.36665,-0.16913 -1.00342,-0.15713 -1.41275,-0.17743 -1.11959,-0.0811 -3.2227,-0.23169 -4.64388,-0.11148 l -0.0451,4.9e-4 c -0.11946,-0.0186 -0.2372,-0.0465 -0.35221,-0.0837 -0.11436,-0.0394 -0.22501,-0.0889 -0.33069,-0.14777 -0.0899,-0.0502 -0.17423,-0.10974 -0.25162,-0.17767 -0.0795,-0.0678 -0.15256,-0.14277 -0.21822,-0.22404 v 0 l -2.82112,-3.26202 0.88046,-0.76146 3.09284,3.57621 c 1.34374,-0.1127 3.14185,0.0533 4.37406,0.15945 0.69307,0.0652 1.65668,0.0469 2.26271,0.35533 0.35281,0.1716 0.64096,0.4523 0.82174,0.80049 0.0633,0.12533 0.11106,0.25791 0.14208,0.39484 0.0324,0.13929 0.0466,0.28218 0.0423,0.42513 -0.006,0.14096 -0.0315,0.2805 -0.0751,0.41473 -0.0449,0.13534 -0.10528,0.26503 -0.17995,0.3865 -0.19926,0.30696 -0.48502,0.54798 -0.82113,0.6927 -0.36925,0.15533 -0.76991,0.2214 -1.16948,0.19286 l -0.34387,-0.0174 -0.22074,-0.008 0.0346,0.04 0.12981,0.1501 c 0.045,0.052 0.0679,0.0987 0.10511,0.15395 l 4.432451,5.12517 c 0.1404,0.1636 0.24655,0.35371 0.312123,0.5591 0.0636,0.20846 0.0853,0.42739 0.064,0.64427 -0.0196,0.21986 -0.0836,0.43346 -0.188073,0.6279 -0.10081,0.19691 -0.23902,0.37233 -0.40696,0.51635 -0.12777,0.10956 -0.27007,0.20091 -0.422941,0.27138 -0.0717,0.0332 -0.14587,0.0611 -0.22174,0.0834 l 0.0502,0.058 c 0.287441,0.33542 0.422061,0.77548 0.371571,1.21432 -0.0201,0.21937 -0.0827,0.43272 -0.18434,0.62815 -0.103441,0.19735 -0.242831,0.37362 -0.410961,0.51983 -0.16799,0.14512 -0.36195,0.2571 -0.57165,0.32998 -0.20911,0.0708 -0.42954,0.10253 -0.65017,0.0936 -0.21727,-0.0101 -0.43028,-0.0638 -0.62633,-0.15794 -0.19496,-0.0927 -0.36871,-0.22473 -0.51025,-0.38776 v 0 l -0.0415,-0.048 c -0.0345,0.0723 -0.0728,0.14283 -0.11469,0.21118 -0.0914,0.14594 -0.20401,0.27744 -0.33407,0.39031 v 0 c -0.16828,0.14471 -0.36217,0.25664 -0.57164,0.32998 -0.20762,0.0719 -0.42697,0.10382 -0.64646,0.0938 -0.21768,-0.0102 -0.43121,-0.0633 -0.62831,-0.15621 -0.19375,-0.0946 -0.3666,-0.22697 -0.50825,-0.3895 l -0.0986,-0.11407 c -0.0352,0.0654 -0.0736,0.12895 -0.1151,0.1905 z"
         id="path1-8-6"
         style="stroke-width:0.264583"
         sodipodi:nodetypes="cccsccccscccscccccsscsscccscccccccsscccccccccccsscccssccccccccccccsscccccccsscccccccccsccccccccccccccccscccccscccccccccscccssccccccc" /></g></g><style
     type="text/css"
     id="style1-3">.st0{fill-rule:evenodd;clip-rule:evenodd;}</style></svg>
