<?xml version="1.0" encoding="UTF-8" standalone="no"?>
<!-- Created with Inkscape (http://www.inkscape.org/) -->

<svg
   width="32.511742mm"
   height="32.511745mm"
   viewBox="0 0 32.511742 32.511745"
   version="1.1"
   id="svg1"
   xml:space="preserve"
   inkscape:export-filename="cross.svg"
   inkscape:export-xdpi="96"
   inkscape:export-ydpi="96"
   xmlns:inkscape="http://www.inkscape.org/namespaces/inkscape"
   xmlns:sodipodi="http://sodipodi.sourceforge.net/DTD/sodipodi-0.dtd"
   xmlns="http://www.w3.org/2000/svg"
   xmlns:svg="http://www.w3.org/2000/svg"><sodipodi:namedview
     id="namedview1"
     pagecolor="#ffffff"
     bordercolor="#000000"
     borderopacity="0.25"
     inkscape:showpageshadow="2"
     inkscape:pageopacity="0.0"
     inkscape:pagecheckerboard="0"
     inkscape:deskcolor="#d1d1d1"
     inkscape:document-units="mm" /><defs
     id="defs1"><style
       id="style1">.cls-1{fill-rule:evenodd;}</style></defs><g
     inkscape:label="Layer 1"
     inkscape:groupmode="layer"
     id="layer1"
     transform="translate(-109.14621,-92.526662)"><path
       fill="#ff4141"
       d="m 125.40221,92.526661 c 4.48734,0 8.55345,1.820862 11.49694,4.758795 2.93794,2.943494 4.7588,7.009874 4.7588,11.496944 0,4.48759 -1.82113,8.55345 -4.7588,11.49694 -2.94322,2.93846 -7.0096,4.75906 -11.49694,4.75906 -4.48733,0 -8.55371,-1.8206 -11.4972,-4.7588 -2.93793,-2.94349 -4.7588,-7.00961 -4.7588,-11.4972 0,-4.48707 1.82087,-8.55345 4.7588,-11.496944 2.94375,-2.937933 7.00987,-4.758795 11.4972,-4.758795 z m 3.17818,10.358969 c 0.7276,-0.73872 1.91055,-0.74216 2.64213,-0.007 0.73131,0.73448 0.73422,1.92934 0.007,2.66779 l -3.1922,3.23744 3.19537,3.24115 c 0.72179,0.7329 0.71147,1.91982 -0.0214,2.65139 -0.73342,0.73184 -1.91267,0.72972 -2.63366,-0.003 l -3.17421,-3.21813 -3.17949,3.22474 c -0.72761,0.73898 -1.9103,0.74216 -2.64187,0.007 -0.73104,-0.73421 -0.73448,-1.92907 -0.007,-2.66753 l 3.19167,-3.2377 -3.19564,-3.24115 c -0.72125,-0.73263 -0.71146,-1.91981 0.0217,-2.65165 0.73343,-0.73157 1.91267,-0.72972 2.63366,0.003 l 3.17421,3.21839 z m 6.20368,-3.485094 c -2.40056,-2.400565 -5.71738,-3.885142 -9.38186,-3.885142 -3.66474,0 -6.98156,1.484577 -9.38212,3.885406 -2.40057,2.40056 -3.88514,5.71738 -3.88514,9.38186 0,3.66448 1.48457,6.98156 3.88514,9.38186 2.40056,2.40083 5.71738,3.88567 9.38212,3.88567 3.66448,0 6.9813,-1.48458 9.38186,-3.88567 2.40057,-2.4003 3.88515,-5.71738 3.88515,-9.38186 0,-3.66448 -1.48432,-6.9813 -3.88515,-9.382124 z"
       id="path1"
       style="fill:#020000;fill-opacity:1;stroke-width:0.264583" /></g><style
     type="text/css"
     id="style1-3">.st0{fill-rule:evenodd;clip-rule:evenodd;}</style></svg>
