<?xml version="1.0" encoding="UTF-8" standalone="no"?>
<!-- Created with Inkscape (http://www.inkscape.org/) -->

<svg
   width="149.69368mm"
   height="73.244408mm"
   viewBox="0 0 149.69368 73.244408"
   version="1.1"
   id="svg1"
   xml:space="preserve"
   inkscape:export-filename="suggestion.png"
   inkscape:export-xdpi="96"
   inkscape:export-ydpi="96"
   xmlns:inkscape="http://www.inkscape.org/namespaces/inkscape"
   xmlns:sodipodi="http://sodipodi.sourceforge.net/DTD/sodipodi-0.dtd"
   xmlns="http://www.w3.org/2000/svg"
   xmlns:svg="http://www.w3.org/2000/svg"><sodipodi:namedview
     id="namedview1"
     pagecolor="#ffffff"
     bordercolor="#000000"
     borderopacity="0.25"
     inkscape:showpageshadow="2"
     inkscape:pageopacity="0.0"
     inkscape:pagecheckerboard="0"
     inkscape:deskcolor="#d1d1d1"
     inkscape:document-units="mm" /><defs
     id="defs1"><inkscape:path-effect
       effect="offset"
       id="path-effect4"
       is_visible="true"
       lpeversion="1.2"
       linejoin_type="miter"
       unit="mm"
       offset="0.2"
       miter_limit="4"
       attempt_force_join="false"
       update_on_knot_move="true" /><inkscape:path-effect
       effect="offset"
       id="path-effect2"
       is_visible="true"
       lpeversion="1.2"
       linejoin_type="miter"
       unit="mm"
       offset="-1.5"
       miter_limit="4"
       attempt_force_join="false"
       update_on_knot_move="true" /></defs><g
     inkscape:label="Layer 1"
     inkscape:groupmode="layer"
     id="layer1"
     transform="translate(-27.185025,-100.15656)"><g
       style="clip-rule:evenodd;fill-rule:evenodd;stroke:none;stroke-width:1.00135;stroke-dasharray:none;image-rendering:optimizeQuality;shape-rendering:geometricPrecision;text-rendering:geometricPrecision"
       id="g1"
       transform="matrix(0.11983814,0,0,0.11983814,65.520226,116.60192)"
       inkscape:path-effect="#path-effect2"><path
         fill-rule="nonzero"
         d="m 12.517578,12.517578 h 60.953125 c 0.677213,0 1.352465,0.04309 2.025391,0.128906 l 0.414062,0.05274 0.417969,0.02539 c 16.298969,0.98157 31.770645,3.756093 46.287105,9.138672 15.59873,5.785644 30.38608,14.661955 43.92774,27.716797 l 0.0391,0.03711 127.54688,120.841793 h 151.5957 l -71.30078,-69.2832 c -6.07859,-5.913502 -6.21641,-15.828884 -0.30274,-21.908202 5.91223,-6.078394 15.82942,-6.215236 21.91211,-0.298828 l 98.62305,95.83594 0.0391,0.0371 0.004,0.004 c 6.39265,6.39609 6.39141,15.97635 -0.004,22.3711 l -0.11523,0.11328 -98.55274,95.76367 c -6.07891,5.91328 -15.99387,5.77581 -21.90625,-0.30273 -5.91327,-6.07891 -5.77639,-15.99402 0.29688,-21.90235 l 71.30664,-69.28711 h -151.5957 l -127.54688,120.83985 -0.0391,0.0371 c -13.54177,13.05585 -28.32863,21.93369 -43.92578,27.71875 -14.51679,5.3827 -29.989156,8.15509 -46.289065,9.13671 l -0.419922,0.0254 -0.417969,0.0527 c -0.681639,0.0873 -1.357816,0.13057 -2.019531,0.13086 H 12.517578 v -31.17774 c 20.453766,-0.0585 40.891232,-0.19701 61.220703,0.0371 l 0.458985,0.006 0.458984,-0.0293 c 12.630346,-0.78247 25.178224,-2.94478 37.13086,-7.375 12.00607,-4.45214 23.2311,-11.16894 33.40625,-21.00196 l -0.0879,0.0859 L 265.48828,186.0293 145.19336,72.056641 c -10.17459,-9.831325 -21.39962,-16.546927 -33.4082,-21 -11.950821,-4.429546 -24.498564,-6.592532 -37.12891,-7.375 l -0.458984,-0.0293 -0.458985,0.0059 c -20.329471,0.234119 -40.766937,0.09557 -61.220703,0.03711 z"
         id="path1"
         style="stroke:none;stroke-width:1.00135;stroke-dasharray:none"
         inkscape:original-d="M 414.88,214.119 H 299.118 L 175.23,331.49 c -14.854,14.321 -31.076,24.07 -48.261,30.444 -15.92,5.903 -32.652,8.857 -49.888,9.895 a 28.514,28.514 0 0 1 -3.61,0.231 H 0 v -56.178 c 24.588,0 49.308,-0.278 73.882,0.005 11.735,-0.727 23.012,-2.713 33.553,-6.62 10.447,-3.874 20.228,-9.73 29.061,-18.266 L 247.29,186.03 136.496,81.058 C 127.663,72.523 117.882,66.667 107.435,62.793 96.894,58.886 85.617,56.9 73.882,56.173 49.308,56.456 24.588,56.178 0,56.178 V 0 h 73.471 c 1.222,0 2.426,0.08 3.61,0.231 17.236,1.038 33.968,3.992 49.888,9.895 17.185,6.374 33.407,16.123 48.261,30.443 L 299.118,157.941 H 414.88 L 365.695,110.148 C 354.612,99.366 354.366,81.625 365.148,70.541 375.929,59.457 393.671,59.212 404.755,69.993 l 98.752,95.96 0.038,0.038 c 11.273,11.272 11.273,28.806 0,40.078 l -0.038,0.038 -98.752,95.959 c -11.084,10.782 -28.826,10.537 -39.607,-0.547 -10.782,-11.084 -10.536,-28.825 0.547,-39.607 z" /></g><path
       class="st0"
       d="m 40.330643,100.79193 c 1.457763,-0.986687 3.119227,-0.77025 4.491061,0.27692 0.359668,0.2769 0.668402,0.61429 0.913486,1.02489 0.206889,0.35012 0.57292,1.06308 -0.108269,1.17448 -0.267363,0.0445 -0.738427,-0.32147 -1.098095,-0.43924 -0.4647,-0.14959 -0.94214,-0.24826 -1.41638,-0.296 -0.884855,-0.0923 -1.753782,-0.0191 -2.501761,0.18778 -0.407414,0.1114 -0.798901,0.24827 -1.177672,0.42333 -0.175058,0.0828 -0.534726,0.32147 -0.633395,0.0127 -0.229168,-0.71296 1.00579,-2.01158 1.530977,-2.36488 z m -11.066923,24.7088 h 2.081612 c 1.043989,-1.62327 3.291111,-2.46992 5.299515,-3.22745 0.40105,-0.15278 0.792537,-0.29919 1.161757,-0.44879 l 0.006,-0.006 c 0.340576,-0.28964 0.690692,-0.63657 0.967607,-0.94532 0.203701,-0.22917 0.366032,-0.4265 0.451961,-0.55381 -0.07001,-0.0605 -0.143227,-0.12096 -0.213253,-0.1878 -0.515623,-0.4647 -0.983511,-1.04081 -1.406829,-1.70921 -0.391499,-0.62067 -0.744803,-1.32409 -1.063088,-2.10071 -0.140051,-0.0414 -0.273733,-0.0923 -0.401048,-0.15278 -0.181424,-0.0859 -0.346936,-0.18461 -0.496532,-0.2992 -0.442422,-0.33738 -0.732065,-0.7989 -0.903942,-1.30498 -0.18779,-0.56656 -0.222802,-1.1904 -0.146412,-1.76651 0.04138,-0.29919 0.124133,-0.557 0.248265,-0.77343 0.130499,-0.22599 0.305558,-0.4106 0.521995,-0.55064 0.06366,-0.0414 0.136865,-0.0573 0.206888,-0.0509 -0.124133,-0.63657 -0.105032,-1.24451 -0.07639,-1.96066 0.06684,-1.86835 0.541092,-3.36113 2.014771,-4.65657 2.221657,-1.9543 6.617237,-2.12299 9.064875,-0.44243 0.362856,0.25146 0.700245,0.54747 1.002615,0.8944 0.993062,1.13947 1.874729,3.64123 1.858813,5.18175 -0.0036,0.35648 -0.06364,0.71934 -0.184609,1.08855 -0.006,0.035 -0.01275,0.0764 -0.02226,0.12095 0.270551,0.1687 0.480616,0.37559 0.633395,0.61112 v 0 c 0.229168,0.35011 0.327837,0.75115 0.305558,1.17448 -0.02226,0.40742 -0.162331,0.8371 -0.416954,1.25406 -0.29283,0.4838 -0.744803,0.95805 -1.343191,1.36865 -0.521987,1.21904 -1.25405,2.44127 -2.138904,3.42161 -0.283267,0.3151 -0.585649,0.60474 -0.900758,0.86256 0.254635,0.27373 0.7257,0.68114 1.174496,1.06627 0.07952,0.0669 0.159143,0.13686 0.238708,0.20689 0.429694,0.19416 0.849836,0.36603 1.269978,0.54109 1.874729,0.76708 3.781277,1.55006 4.771164,3.34522 h 2.648163 c 0.668401,0 1.209503,0.62385 1.107647,1.38775 l -1.448224,10.99052 c -0.09864,0.75753 -0.623843,1.38774 -1.387737,1.38774 H 30.992031 c -0.763895,0 -1.289071,-0.63021 -1.387741,-1.38774 l -1.448217,-10.99052 c -0.101856,-0.76072 0.43924,-1.38775 1.107647,-1.38775 z m 3.287928,0 h 19.148281 c -0.910297,-1.20632 -2.466741,-1.84289 -4.000893,-2.47311 -0.321474,-0.1305 -0.639759,-0.261 -0.945317,-0.39467 -0.254635,0.34693 -0.566557,0.64931 -0.919861,0.90393 -0.846647,0.6143 -1.941567,0.96761 -3.071493,1.02172 -1.123562,0.0541 -2.288495,-0.18461 -3.281558,-0.75753 -0.496531,-0.28647 -0.948504,-0.6525 -1.330451,-1.10129 -0.372395,0.15278 -0.770258,0.2992 -1.174484,0.45515 -1.620094,0.61749 -3.405698,1.29226 -4.424224,2.3458 z m 9.691907,5.17856 c 0.919861,0 1.664652,0.74481 1.664652,1.66466 0,0.91986 -0.744791,1.66466 -1.664652,1.66466 -0.919849,0 -1.664652,-0.7448 -1.664652,-1.66466 0,-0.91985 0.744803,-1.66466 1.664652,-1.66466 z m -0.830732,-12.05998 c -0.152779,-0.0923 -0.200526,-0.29283 -0.108269,-0.44561 0.09227,-0.15277 0.29283,-0.20051 0.445609,-0.10826 0.245084,0.1496 0.48698,0.22916 0.722512,0.23872 0.235532,0.01 0.474252,-0.0478 0.716148,-0.17506 0.159155,-0.0828 0.356492,-0.0191 0.439245,0.14005 0.08277,0.15914 0.01913,0.35648 -0.140051,0.43923 -0.343753,0.17825 -0.690681,0.261 -1.040809,0.24509 -0.346929,-0.0159 -0.693869,-0.12732 -1.034433,-0.3342 z m 3.899049,-5.42046 c 0.458336,0 0.827544,0.3724 0.827544,0.82755 0,0.45833 -0.372395,0.82755 -0.827544,0.82755 -0.455161,0 -0.827556,-0.37239 -0.827556,-0.82755 -0.0036,-0.45834 0.369219,-0.82755 0.827556,-0.82755 z m -5.697389,0 c 0.458337,0 0.827556,0.3724 0.827556,0.82755 0,0.45833 -0.372395,0.82755 -0.827556,0.82755 -0.458337,0 -0.827544,-0.37239 -0.827544,-0.82755 0,-0.45834 0.369207,-0.82755 0.827544,-0.82755 z m -3.870393,-1.15858 -0.0064,0.004 c -0.124134,0.0796 -0.222804,0.18461 -0.299194,0.31828 -0.08275,0.14324 -0.136864,0.3183 -0.16551,0.52837 -0.06366,0.48061 -0.03501,0.99942 0.117772,1.46412 0.127316,0.38514 0.346936,0.73208 0.671591,0.98353 0.114584,0.0891 0.238714,0.16232 0.372401,0.22598 0.136864,0.0636 0.283279,0.11464 0.442422,0.15278 0.111396,0.0255 0.194149,0.10502 0.235532,0.2037 v 0 c 0.321473,0.80209 0.674777,1.52142 1.069452,2.14845 0.388311,0.61748 0.818004,1.14267 1.289069,1.56917 0.502895,0.45515 0.999426,0.77345 1.486418,0.97715 0.894394,0.37559 1.753769,0.35331 2.55267,0.0573 0.821192,-0.30238 1.585087,-0.89439 2.259864,-1.64237 0.853012,-0.94532 1.556432,-2.13573 2.056139,-3.32294 0.03188,-0.0733 0.08589,-0.1305 0.149603,-0.16551 0.544278,-0.36285 0.945316,-0.77663 1.199952,-1.19677 0.194149,-0.31829 0.299194,-0.63976 0.318285,-0.93895 0.01588,-0.28328 -0.04776,-0.54746 -0.194149,-0.77026 v 0 0 c -0.07964,-0.11777 -0.178246,-0.22917 -0.305558,-0.32466 -0.254635,0.57611 -0.681141,1.33681 -1.231783,2.09117 v -3.45663 c -1.585086,-0.73525 -2.61952,-2.3458 -3.147882,-4.77117 -0.633395,4.6152 -6.298953,4.41468 -7.724885,5.25815 v 2.69272 c -0.270539,-0.37876 -0.512447,-0.76707 -0.732063,-1.15857 -0.178243,-0.32784 -0.315107,-0.63339 -0.413777,-0.92622 z m 4.004081,8.6702 c -0.117773,0.17188 -0.286467,0.37877 -0.483804,0.59839 -0.165507,0.18461 -0.35648,0.38195 -0.557006,0.57292 0.343753,0.4647 0.770259,0.83073 1.244511,1.10446 0.830744,0.47744 1.814255,0.67796 2.765935,0.63341 0.948504,-0.0478 1.858813,-0.33739 2.559046,-0.84666 0.337389,-0.24509 0.623855,-0.54109 0.837108,-0.87848 -0.47744,-0.41059 -0.977147,-0.84665 -1.266802,-1.16176 -0.353292,0.23554 -0.722511,0.42969 -1.107646,0.56975 -0.954868,0.3533 -1.982938,0.37876 -3.049202,-0.07 -0.308746,-0.1305 -0.623855,-0.30237 -0.94214,-0.522 z"
       id="path1-5"
       style="stroke-width:0.318289" /><g
       style="clip-rule:evenodd;fill-rule:evenodd;image-rendering:optimizeQuality;shape-rendering:geometricPrecision;text-rendering:geometricPrecision"
       id="g2"
       transform="matrix(0.04745435,0,0,0.04745435,27.185026,143.40386)"><path
         d="M 319.988,7.973 C 143.293,7.973 0,151.242 0,327.96 c 0,141.392 91.678,261.298 218.826,303.63 16.004,2.964 21.886,-6.957 21.886,-15.414 0,-7.63 -0.319,-32.835 -0.449,-59.552 -89.032,19.359 -107.8,-37.772 -107.8,-37.772 -14.552,-36.993 -35.529,-46.831 -35.529,-46.831 -29.032,-19.879 2.209,-19.442 2.209,-19.442 32.126,2.245 49.04,32.954 49.04,32.954 28.56,48.922 74.883,34.76 93.131,26.598 2.882,-20.681 11.15,-34.807 20.315,-42.803 -71.08,-8.067 -145.797,-35.516 -145.797,-158.14 0,-34.926 12.52,-63.485 32.965,-85.88 -3.33,-8.078 -14.291,-40.606 3.083,-84.674 0,0 26.87,-8.61 88.029,32.8 25.512,-7.075 52.878,-10.642 80.056,-10.76 27.2,0.118 54.614,3.673 80.162,10.76 61.076,-41.386 87.922,-32.8 87.922,-32.8 17.398,44.08 6.485,76.631 3.154,84.675 20.516,22.394 32.93,50.953 32.93,85.879 0,122.907 -74.883,149.93 -146.117,157.856 11.481,9.921 21.733,29.398 21.733,59.233 0,42.792 -0.366,77.28 -0.366,87.804 0,8.516 5.764,18.473 21.992,15.354 127.076,-42.354 218.637,-162.274 218.637,-303.582 0,-176.695 -143.269,-319.988 -320,-319.988 l -0.023,0.107 z"
         id="path1-8" /></g><path
       d="m 167.96473,131.58493 c -0.007,0.0662 -0.0279,0.12878 -0.0592,0.19142 -0.0349,0.14617 -0.0522,0.31323 -0.0522,0.49769 0,0.0174 0.004,0.0348 0.004,0.0522 v 12.09075 c 0.15314,0.37936 0.34108,0.66475 0.5673,0.84225 0.20882,0.16706 0.46637,0.2471 0.77961,0.23318 0.0209,-0.004 0.0453,-0.004 0.0662,-0.004 h 3.46643 v 0 c 0.007,0 0.0174,0 0.0279,0 0.53945,0.0279 0.92926,-0.11838 1.19027,-0.41764 0.29584,-0.34107 0.46637,-0.88749 0.52554,-1.62185 v 0 -0.0105 l 1.05455,-10.90743 c 0,-0.0174 0,-0.0349 0.004,-0.0522 0.0731,-0.6195 -0.0626,-1.02322 -0.36892,-1.25988 -0.35151,-0.27148 -0.93273,-0.38284 -1.68797,-0.38284 -0.0174,0 -0.0349,0.004 -0.0522,0.004 h -3.90495 v -0.004 c -0.59515,0 -1.03366,0.11839 -1.30165,0.36195 -0.11142,0.10089 -0.19491,0.22971 -0.25755,0.38632 z m -3.82143,13.37501 c -0.0835,-0.08 -0.14268,-0.18446 -0.16706,-0.29932 l -5.56856,-10.02342 c -0.61951,-1.03367 -1.17636,-1.05803 -1.71581,-0.73783 -0.38285,0.22622 -0.78656,0.59513 -1.19029,0.96405 -0.24362,0.22275 -0.48725,0.44549 -0.69258,0.61603 l -0.9571,0.79004 v 0 l -0.007,0.004 c -0.69607,0.56033 -1.48263,0.86312 -2.22743,0.92229 -0.49072,0.0418 -0.96406,-0.0209 -1.39562,-0.18446 -0.442,-0.16706 -0.8318,-0.43505 -1.12415,-0.80048 -0.31671,-0.39328 -0.52553,-0.89445 -0.57425,-1.48611 h 0.004 c -0.0105,-0.1427 0.0313,-0.28539 0.12878,-0.40373 l 3.04183,-3.61955 c -0.64038,-0.0105 -1.20767,0.0765 -1.74016,0.24361 -0.81093,0.25407 -1.56964,0.6926 -2.39797,1.2599 -0.0939,0.0731 -0.21578,0.11825 -0.34456,0.11825 h -3.50466 v 6.62313 l 0.0139,4.23558 h 2.03947 v 0 c 0.19491,0 0.38285,0.10089 0.48378,0.28192 l 2.53371,4.41656 c 0.3689,0.64387 0.69606,1.20072 1.10327,1.56616 0.38284,0.34455 0.88401,0.55686 1.65664,0.57774 0.28888,0.007 0.5673,-0.0417 0.82833,-0.14966 0.16009,-0.0662 0.32019,-0.15661 0.47681,-0.27146 l -1.64273,-3.06968 c -0.14618,-0.27146 -0.0418,-0.60906 0.2297,-0.75175 0.27147,-0.14617 0.60906,-0.0418 0.75176,0.22971 l 1.78541,3.33765 c 0.66476,0.3376 1.26686,0.442 1.80631,0.32716 0.49421,-0.10787 0.96058,-0.40373 1.39911,-0.88401 l -2.57237,-4.03761 c -0.16359,-0.25755 -0.0905,-0.6021 0.17053,-0.76916 0.25754,-0.16357 0.6021,-0.0905 0.76915,0.17054 l 2.70772,4.253 c 0.47681,0.19489 0.93273,0.23665 1.36778,0.11838 0.41417,-0.11483 0.83181,-0.37936 1.24597,-0.81092 l -2.45365,-4.62191 c -0.14618,-0.27147 -0.0417,-0.61255 0.23318,-0.75523 0.27146,-0.14619 0.61254,-0.0417 0.75523,0.23318 l 2.54066,4.782 c 0.33064,0.19142 0.71348,0.24014 1.07892,0.18097 0.32019,-0.0522 0.62994,-0.19142 0.884,-0.38979 0.24363,-0.19491 0.43505,-0.44549 0.52554,-0.73088 0.10089,-0.30974 0.0905,-0.6717 -0.0731,-1.06499 z m 0.73784,-0.96755 h 1.85851 v -11.66615 c 0,-0.0139 0,-0.0313 0.004,-0.0453 0,-0.18097 0.0105,-0.35498 0.0349,-0.51856 l -1.89326,-1.25641 c -0.0105,-0.007 -0.0209,-0.0139 -0.0313,-0.0209 -0.24712,-0.16358 -0.54295,-0.3724 -0.83877,-0.58122 -1.07543,-0.75175 -2.1787,-1.52787 -3.37246,-1.84111 -0.64387,-0.17053 -1.38867,-0.28191 -2.14738,-0.29582 -0.66476,-0.014 -1.33995,0.0487 -1.97685,0.21578 -0.37936,0.0975 -0.74827,0.23318 -1.08935,0.41415 -0.30279,0.1601 -0.5847,0.35501 -0.83528,0.59167 l -1.26686,1.50699 c -0.0383,0.0766 -0.0939,0.13922 -0.16009,0.19142 l -3.49428,4.16251 c 0.0522,0.2645 0.15662,0.48725 0.29931,0.66822 0.16706,0.20534 0.3898,0.35848 0.64387,0.45593 0.27147,0.10089 0.5847,0.13922 0.91185,0.11141 0.5325,-0.0452 1.10328,-0.2645 1.61489,-0.67519 v 0 l 0.9571,-0.79003 c 0.24362,-0.20186 0.44896,-0.38981 0.65431,-0.57427 0.44896,-0.41068 0.89445,-0.81788 1.36777,-1.09979 1.08935,-0.65082 2.17522,-0.67171 3.24717,1.12764 l 0.0105,0.0174 z m 2.06733,1.1172 h -1.48611 c 0.20185,0.58817 0.19142,1.14504 0.0313,1.63924 -0.16358,0.50814 -0.48377,0.9397 -0.89445,1.26686 -0.40024,0.31671 -0.88749,0.53597 -1.39911,0.6195 -0.49768,0.0835 -1.01974,0.0383 -1.50699,-0.16358 -0.56382,0.58818 -1.15896,0.96057 -1.77845,1.13112 -0.623,0.17053 -1.25293,0.13572 -1.88984,-0.087 -0.60559,0.6717 -1.27382,1.09283 -2.01164,1.24944 -0.75176,0.16358 -1.54877,0.0487 -2.3945,-0.34803 -0.2645,0.20533 -0.53944,0.36892 -0.82832,0.48725 -0.4072,0.17053 -0.83529,0.2471 -1.28425,0.23319 -1.07194,-0.0313 -1.79238,-0.34805 -2.36663,-0.86314 -0.54989,-0.49072 -0.91533,-1.11719 -1.33297,-1.84111 l -2.37012,-4.13465 h -1.83763 c -0.10786,0.53249 -0.29235,0.98494 -0.57078,1.34689 -0.46985,0.60559 -1.15548,0.92579 -2.1091,0.9049 -0.0105,0 -0.0209,0 -0.0313,0 h -3.14972 c -0.79352,0.12878 -1.47218,-0.0662 -2.00468,-0.68215 -0.47333,-0.54642 -0.79352,-1.43391 -0.93273,-2.73556 -0.004,-0.0139 -0.004,-0.0313 -0.007,-0.0487 l -0.82833,-10.26705 c -0.16357,-1.10675 0.0174,-1.88982 0.4629,-2.4258 0.44896,-0.53946 1.12763,-0.78309 1.95943,-0.82137 0.0243,-0.004 0.0453,-0.004 0.0696,-0.004 h 4.24255 v 0.004 c 0.80049,-0.0105 1.48959,0.12536 2.01165,0.4629 0.42112,0.27146 0.72391,0.65429 0.87705,1.17635 h 3.45599 c 0.87009,-0.5847 1.681,-1.0441 2.57894,-1.32601 0.88401,-0.27496 1.82718,-0.3724 2.9583,-0.23667 l 1.16591,-1.37822 c 0.0209,-0.0279 0.0418,-0.0522 0.0696,-0.0765 0.33063,-0.31323 0.69955,-0.57079 1.0963,-0.77961 0.41764,-0.21925 0.86313,-0.38631 1.3295,-0.50813 0.73784,-0.19142 1.51396,-0.2645 2.27267,-0.25058 0.85965,0.0174 1.69493,0.14269 2.41537,0.33064 1.37822,0.36543 2.56851,1.19723 3.72398,2.00816 0.25754,0.18098 0.5151,0.36196 0.82136,0.56382 0.0105,0.007 0.0209,0.0139 0.0313,0.0209 l 1.67753,1.12068 c 0.0835,-0.11839 0.18097,-0.22622 0.29235,-0.32367 0.48028,-0.43157 1.16591,-0.64387 2.04993,-0.64387 v -0.004 h 3.90495 c 0.0139,0 0.0313,0 0.0452,0.004 0.99886,-0.004 1.81327,0.17751 2.37708,0.61255 0.62646,0.48377 0.9223,1.21812 0.79701,2.27266 0,0.0105 -0.004,0.0174 -0.004,0.0279 l -1.05455,10.89699 v 0 c -0.0766,0.9745 -0.33759,1.7367 -0.79699,2.2657 -0.49074,0.56383 -1.1694,0.84225 -2.06038,0.80397 v 0 h -3.46643 -0.004 c -0.59874,0.0313 -1.11035,-0.13225 -1.53844,-0.47333 -0.31322,-0.25407 -0.57425,-0.59514 -0.77959,-1.0267 z m -28.1665,-4.23559 c 0.41764,0 0.75524,0.33759 0.75524,0.75523 0,0.41764 -0.3376,0.75524 -0.75524,0.75524 -0.41764,0 -0.75523,-0.3376 -0.75523,-0.75524 0,-0.41764 0.33759,-0.75523 0.75523,-0.75523 z m 32.87193,0 c 0.41765,0 0.75525,0.33759 0.75525,0.75523 0,0.41764 -0.3376,0.75524 -0.75525,0.75524 -0.41764,0 -0.75522,-0.3376 -0.75522,-0.75524 0,-0.41764 0.33758,-0.75523 0.75522,-0.75523 z m -29.06094,-3.21585 -0.0209,-5.89224 c 0,-0.0105 0,-0.0209 0,-0.0349 -0.0592,-0.36892 -0.21926,-0.61602 -0.45592,-0.76916 -0.32368,-0.20882 -0.80745,-0.28886 -1.40259,-0.28191 h -0.007 v 0.004 h -4.24602 c -0.007,0 -0.0139,0 -0.0209,0 -0.52553,0.0243 -0.92578,0.14965 -1.15199,0.42112 -0.24363,0.28887 -0.32716,0.79004 -0.21231,1.56616 0.004,0.0174 0.004,0.0313 0.004,0.0487 l 0.82832,10.27749 v 0.0174 c 0.11142,1.06498 0.34108,1.74712 0.66475,2.123 0.25754,0.29932 0.60906,0.38285 1.03018,0.30628 0.0313,-0.007 0.0662,-0.0105 0.0975,-0.0105 v -0.004 h 3.18452 c 0.0209,0 0.0417,0 0.0592,0.004 0.56381,0.0105 0.9536,-0.15663 1.19723,-0.47334 0.28539,-0.36891 0.4246,-0.94665 0.44549,-1.69145 h -0.004 v -5.61037 z m 16.78574,-3.57085 z"
       id="path1-4"
       style="stroke:#000000;stroke-width:0.4;stroke-dasharray:none;stroke-opacity:1" /><g
       style="clip-rule:evenodd;fill-rule:evenodd;stroke-width:28.4429;stroke-dasharray:none;image-rendering:optimizeQuality;shape-rendering:geometricPrecision;text-rendering:geometricPrecision"
       id="g4"
       transform="matrix(0.02548966,0,0,0.02548966,87.167007,110.33397)"
       inkscape:path-effect="#path-effect4"><path
         fill-rule="nonzero"
         d="m 256,-7.8457031 c -72.8438,0 -138.80465,29.5258931 -186.568359,77.2792971 C 21.679434,117.19611 -7.8457031,183.1562 -7.8457031,256 c 0,72.8438 29.5253711,138.81443 77.2792971,186.56836 C 117.19611,490.32057 183.1562,519.8457 256,519.8457 c 72.8438,0 138.81503,-29.52401 186.56836,-77.27734 C 490.32169,394.81503 519.8457,328.8438 519.8457,256 519.8457,183.1562 490.32116,117.19476 442.56836,69.431641 394.81503,21.678314 328.8438,-7.8457031 256,-7.8457031 Z m 0,43.0117191 c 60.99633,0 116.21765,24.735121 156.16211,64.669921 39.93807,39.957373 64.67187,95.167733 64.67187,156.164063 0,60.99633 -24.73445,116.21698 -64.66992,156.16211 C 372.2176,452.09892 316.99633,476.83398 256,476.83398 c -60.99633,0 -116.20675,-24.73386 -156.162109,-64.66992 C 59.901079,372.2176 35.166016,316.99633 35.166016,256 c 0,-60.99633 24.734537,-116.20742 64.669921,-156.162109 C 139.79331,59.899825 195.00367,35.166016 256,35.166016 Z m 0.34961,97.607424 c -13.09829,0 -25.29619,2.47444 -36.44727,7.62109 l -0.01,0.004 -0.008,0.004 c -11.23422,5.21629 -20.35724,12.94661 -27.26758,23.13086 l -0.01,0.0156 -0.0117,0.0156 c -7.00697,10.42926 -10.61742,22.79875 -11.17578,36.97657 l -0.32226,8.15429 h 48.41015 l 0.49024,-7.32226 c 0.44046,-6.58099 2.06718,-11.40859 4.41211,-14.86914 2.51781,-3.72332 5.67042,-6.36976 9.30273,-8.02344 l 0.0156,-0.006 0.0156,-0.008 c 3.99602,-1.84069 8.19028,-2.73047 12.60547,-2.73047 4.98559,0 9.37653,1.03721 13.17969,2.94922 3.79902,1.98446 6.82013,4.69417 9.01562,8.11914 l 0.008,0.0117 0.008,0.0117 c 2.12144,3.28303 3.31445,7.32262 3.31445,12.40235 0,4.35625 -0.82319,8.0932 -2.32031,11.33203 -1.64531,3.56484 -3.8432,6.68998 -6.58008,9.35547 l -0.0117,0.0117 -0.0137,0.0137 c -3.02013,2.96775 -6.48513,5.67464 -10.38867,8.15625 l 0.14062,-0.0879 c -7.18491,4.35806 -13.46682,9.22836 -18.76953,14.69531 -5.79787,5.92503 -9.98933,13.49698 -12.81836,22.3125 -2.88475,8.84579 -4.28523,20.57176 -4.44922,34.36719 v 0.0469 9.92188 h 46.63086 v -9.73438 c 0.14116,-7.83893 1.04059,-14.02355 2.49414,-18.7539 1.3862,-4.50515 3.60161,-8.3882 6.53516,-11.55274 l 0.0176,-0.0195 0.0176,-0.0176 c 3.16967,-3.46471 7.51921,-6.97583 13.26172,-10.58007 l -0.1582,0.0957 c 7.10513,-4.23028 13.2184,-9.14318 18.44727,-14.81445 5.38222,-5.79713 9.44103,-12.42283 12.32031,-19.73438 2.95492,-7.50364 4.35547,-15.74869 4.35547,-24.66406 0,-13.10069 -3.12478,-24.80082 -9.45703,-35.01563 l -0.01,-0.0156 -0.01,-0.0156 c -6.36318,-10.15352 -15.24533,-17.98881 -26.42382,-23.52539 -11.25121,-5.62791 -24.04735,-8.23437 -38.33594,-8.23437 z m 38.33594,8.23437 c 0.005,0.002 0.0107,0.003 0.0156,0.006 l -0.0312,-0.0156 c 0.006,0.003 0.01,0.007 0.0156,0.01 z m -50.75391,101.69922 c 0.005,-0.005 0.009,-0.0123 0.0137,-0.0176 l -0.0273,0.0293 c 0.004,-0.004 0.01,-0.007 0.0137,-0.0117 z m 6.9375,73.55664 c -8.06163,0 -15.10256,2.99315 -20.79883,8.60938 l -0.006,0.008 -0.006,0.006 c -5.91628,5.86073 -8.67382,12.55396 -8.67382,20.76367 0,8.04288 2.89625,15.1946 8.67968,20.91016 5.88437,5.81546 12.54958,8.56 20.75196,8.61523 h 0.0664 0.0664 c 5.26923,-0.0532 10.21936,-1.35088 14.74609,-4.03906 4.43974,-2.63652 7.90653,-6.19896 10.52539,-10.55469 2.76328,-4.54339 4.125,-9.56124 4.125,-14.93164 0,-8.24464 -2.82654,-14.94436 -8.79492,-20.7832 -5.68906,-5.61531 -12.69078,-8.60352 -20.68164,-8.60352 z m 25.35156,44.31836 c -0.004,0.006 -0.006,0.0132 -0.01,0.0195 l 0.0273,-0.0449 c -0.005,0.009 -0.0122,0.0165 -0.0176,0.0254 z"
         id="path1-1"
         style="stroke-width:28.4429;stroke-dasharray:none"
         inkscape:original-d="M 256,0 C 326.69,0 390.7,28.66 437.02,74.98 483.34,121.31 512,185.31 512,256 512,326.69 483.34,390.7 437.02,437.02 390.7,483.34 326.69,512 256,512 185.31,512 121.31,483.34 74.98,437.02 28.66,390.7 0,326.69 0,256 0,185.31 28.66,121.31 74.98,74.98 121.31,28.66 185.31,0 256,0 Z m -21.49,301.51 v -2.03 c 0.16,-13.46 1.48,-24.12 4.07,-32.05 2.54,-7.92 6.19,-14.37 10.97,-19.25 4.77,-4.92 10.51,-9.39 17.22,-13.46 4.31,-2.74 8.22,-5.78 11.68,-9.18 3.45,-3.36 6.19,-7.27 8.23,-11.69 2.02,-4.37 3.04,-9.24 3.04,-14.62 0,-6.4 -1.52,-11.94 -4.57,-16.66 -3,-4.68 -7.06,-8.28 -12.04,-10.87 -5.03,-2.54 -10.61,-3.81 -16.76,-3.81 -5.53,0 -10.81,1.11 -15.89,3.45 -5.03,2.29 -9.25,5.89 -12.55,10.77 -3.3,4.87 -5.23,11.12 -5.74,18.74 h -32.91 c 0.51,-12.95 3.81,-23.92 9.85,-32.91 6.1,-8.99 14.13,-15.8 24.08,-20.42 10.01,-4.62 21.08,-6.9 33.16,-6.9 13.31,0 24.89,2.43 34.84,7.41 9.96,4.93 17.73,11.83 23.27,20.67 5.48,8.84 8.28,19.1 8.28,30.88 0,8.08 -1.27,15.34 -3.81,21.79 -2.54,6.45 -6.1,12.24 -10.77,17.27 -4.68,5.08 -10.21,9.54 -16.71,13.41 -6.15,3.86 -11.12,7.82 -14.88,11.93 -3.81,4.11 -6.56,8.99 -8.28,14.58 -1.73,5.63 -2.69,12.59 -2.84,20.92 v 2.03 z m 16.36,65.82 c -5.94,-0.04 -11.02,-2.13 -15.29,-6.35 -4.26,-4.21 -6.35,-9.34 -6.35,-15.33 0,-5.89 2.09,-10.97 6.35,-15.19 4.27,-4.21 9.35,-6.35 15.29,-6.35 5.84,0 10.92,2.14 15.18,6.35 4.32,4.22 6.45,9.3 6.45,15.19 0,3.96 -1.01,7.62 -2.99,10.87 -1.98,3.3 -4.57,5.94 -7.82,7.87 -3.25,1.93 -6.86,2.9 -10.82,2.94 z M 417.71,94.29 C 376.33,52.92 319.15,27.32 256,27.32 192.85,27.32 135.68,52.92 94.29,94.29 52.92,135.68 27.32,192.85 27.32,256 c 0,63.15 25.6,120.33 66.97,161.71 41.39,41.37 98.56,66.97 161.71,66.97 63.15,0 120.33,-25.6 161.71,-66.97 41.37,-41.38 66.97,-98.56 66.97,-161.71 0,-63.15 -25.6,-120.32 -66.97,-161.71 z" /></g></g><style
     type="text/css"
     id="style1">.st0{fill-rule:evenodd;clip-rule:evenodd;}</style></svg>
